<mxfile host="app.diagrams.net" modified="2022-05-24T14:41:06.890Z" agent="5.0 (Windows)" etag="3c0AEzOOQmUTfDDG-wCa" version="18.1.1" type="github">
  <diagram id="C5RBs43oDa-KdzZeNtuy" name="Page-1">
    <mxGraphModel dx="1422" dy="752" grid="1" gridSize="10" guides="1" tooltips="1" connect="1" arrows="1" fold="1" page="1" pageScale="1" pageWidth="827" pageHeight="1169" math="0" shadow="0">
      <root>
        <mxCell id="WIyWlLk6GJQsqaUBKTNV-0" />
        <mxCell id="WIyWlLk6GJQsqaUBKTNV-1" parent="WIyWlLk6GJQsqaUBKTNV-0" />
        <mxCell id="_q6xHRFcACr_Y99u5_d5-1" value="" style="edgeStyle=orthogonalEdgeStyle;rounded=0;orthogonalLoop=1;jettySize=auto;html=1;" edge="1" parent="WIyWlLk6GJQsqaUBKTNV-1" source="WIyWlLk6GJQsqaUBKTNV-3" target="_q6xHRFcACr_Y99u5_d5-0">
          <mxGeometry relative="1" as="geometry" />
        </mxCell>
        <mxCell id="WIyWlLk6GJQsqaUBKTNV-3" value="Turn on the red light" style="rounded=1;whiteSpace=wrap;html=1;fontSize=12;glass=0;strokeWidth=1;shadow=0;" parent="WIyWlLk6GJQsqaUBKTNV-1" vertex="1">
          <mxGeometry x="125" y="20" width="140" height="40" as="geometry" />
        </mxCell>
        <mxCell id="Ir1blxYGYh2_I3-ewmjz-18" style="edgeStyle=orthogonalEdgeStyle;rounded=0;orthogonalLoop=1;jettySize=auto;html=1;entryX=0;entryY=0.5;entryDx=0;entryDy=0;" parent="WIyWlLk6GJQsqaUBKTNV-1" source="Ir1blxYGYh2_I3-ewmjz-16" target="WIyWlLk6GJQsqaUBKTNV-3" edge="1">
          <mxGeometry relative="1" as="geometry">
            <Array as="points">
              <mxPoint x="195" y="610" />
              <mxPoint x="105" y="610" />
              <mxPoint x="105" y="40" />
            </Array>
          </mxGeometry>
        </mxCell>
        <mxCell id="Ir1blxYGYh2_I3-ewmjz-16" value="&lt;div&gt;Turn off amber. &lt;br&gt;&lt;/div&gt;&lt;div&gt;Go back to the beginning of the sequence&lt;br&gt;&lt;/div&gt;" style="whiteSpace=wrap;html=1;rounded=1;glass=0;strokeWidth=1;shadow=0;" parent="WIyWlLk6GJQsqaUBKTNV-1" vertex="1">
          <mxGeometry x="135" y="525" width="120" height="60" as="geometry" />
        </mxCell>
        <mxCell id="_q6xHRFcACr_Y99u5_d5-3" value="" style="edgeStyle=orthogonalEdgeStyle;rounded=0;orthogonalLoop=1;jettySize=auto;html=1;" edge="1" parent="WIyWlLk6GJQsqaUBKTNV-1" source="_q6xHRFcACr_Y99u5_d5-0" target="_q6xHRFcACr_Y99u5_d5-2">
          <mxGeometry relative="1" as="geometry" />
        </mxCell>
        <mxCell id="_q6xHRFcACr_Y99u5_d5-5" value="" style="edgeStyle=orthogonalEdgeStyle;rounded=0;orthogonalLoop=1;jettySize=auto;html=1;" edge="1" parent="WIyWlLk6GJQsqaUBKTNV-1" source="_q6xHRFcACr_Y99u5_d5-0" target="_q6xHRFcACr_Y99u5_d5-4">
          <mxGeometry relative="1" as="geometry" />
        </mxCell>
        <mxCell id="_q6xHRFcACr_Y99u5_d5-0" value="Turn on amber light" style="whiteSpace=wrap;html=1;rounded=1;glass=0;strokeWidth=1;shadow=0;" vertex="1" parent="WIyWlLk6GJQsqaUBKTNV-1">
          <mxGeometry x="135" y="130" width="120" height="60" as="geometry" />
        </mxCell>
        <mxCell id="_q6xHRFcACr_Y99u5_d5-7" value="" style="edgeStyle=orthogonalEdgeStyle;rounded=0;orthogonalLoop=1;jettySize=auto;html=1;" edge="1" parent="WIyWlLk6GJQsqaUBKTNV-1" source="_q6xHRFcACr_Y99u5_d5-2" target="_q6xHRFcACr_Y99u5_d5-6">
          <mxGeometry relative="1" as="geometry" />
        </mxCell>
        <mxCell id="_q6xHRFcACr_Y99u5_d5-12" value="" style="edgeStyle=orthogonalEdgeStyle;rounded=0;orthogonalLoop=1;jettySize=auto;html=1;" edge="1" parent="WIyWlLk6GJQsqaUBKTNV-1" source="_q6xHRFcACr_Y99u5_d5-2" target="_q6xHRFcACr_Y99u5_d5-11">
          <mxGeometry relative="1" as="geometry" />
        </mxCell>
        <mxCell id="_q6xHRFcACr_Y99u5_d5-2" value="&lt;div&gt;Turn off amber and red lights.&lt;/div&gt;&lt;div&gt;Turn on green light.&lt;br&gt;&lt;/div&gt;" style="whiteSpace=wrap;html=1;rounded=1;glass=0;strokeWidth=1;shadow=0;" vertex="1" parent="WIyWlLk6GJQsqaUBKTNV-1">
          <mxGeometry x="135" y="260" width="120" height="60" as="geometry" />
        </mxCell>
        <mxCell id="_q6xHRFcACr_Y99u5_d5-4" value="At this point both red and amber lights should be on" style="ellipse;whiteSpace=wrap;html=1;rounded=1;glass=0;strokeWidth=1;shadow=0;" vertex="1" parent="WIyWlLk6GJQsqaUBKTNV-1">
          <mxGeometry x="330" y="110" width="135" height="100" as="geometry" />
        </mxCell>
        <mxCell id="_q6xHRFcACr_Y99u5_d5-8" style="edgeStyle=orthogonalEdgeStyle;rounded=0;orthogonalLoop=1;jettySize=auto;html=1;entryX=0.5;entryY=0;entryDx=0;entryDy=0;" edge="1" parent="WIyWlLk6GJQsqaUBKTNV-1" source="_q6xHRFcACr_Y99u5_d5-6" target="Ir1blxYGYh2_I3-ewmjz-16">
          <mxGeometry relative="1" as="geometry" />
        </mxCell>
        <mxCell id="_q6xHRFcACr_Y99u5_d5-6" value="&lt;div&gt;Turn off green.&lt;/div&gt;&lt;div&gt;Turn on amber&lt;br&gt;&lt;/div&gt;" style="whiteSpace=wrap;html=1;rounded=1;glass=0;strokeWidth=1;shadow=0;" vertex="1" parent="WIyWlLk6GJQsqaUBKTNV-1">
          <mxGeometry x="135" y="400" width="120" height="60" as="geometry" />
        </mxCell>
        <mxCell id="_q6xHRFcACr_Y99u5_d5-11" value="Both red and amber light should be off, when green is turned on." style="ellipse;whiteSpace=wrap;html=1;rounded=1;glass=0;strokeWidth=1;shadow=0;" vertex="1" parent="WIyWlLk6GJQsqaUBKTNV-1">
          <mxGeometry x="335" y="230" width="125" height="120" as="geometry" />
        </mxCell>
      </root>
    </mxGraphModel>
  </diagram>
</mxfile>
